Coordinates
version=1
nRows=17
nColumns=24
inDegrees=yes

Units are S.I. units (second, meters, Newtons, ...)
Angles are in degrees.

endheader
time	pelvis_tilt	pelvis_list	pelvis_rotation	pelvis_tx	pelvis_ty	pelvis_tz	hip_flexion_r	hip_adduction_r	hip_rotation_r	knee_angle_r	ankle_angle_r	subtalar_angle_r	mtp_angle_r	hip_flexion_l	hip_adduction_l	hip_rotation_l	knee_angle_l	ankle_angle_l	subtalar_angle_l	mtp_angle_l	lumbar_extension	lumbar_bending	lumbar_rotation
      5.07000000	      9.96210517	      0.47962646	     -1.05691737	     -0.92146898	      0.87988258	      0.20527450	    -33.04074901	      3.06134093	     -5.60379929	    -12.18677832	     23.08133728	     12.40228209	      0.00000000	     15.25842646	      5.27803459	      5.71411034	     -8.12868849	      3.52218858	    -15.26557643	      0.00000000	    -29.03458858	     -0.72797695	     -2.57141788
      5.08000000	      9.87322050	      0.88813021	     -0.79258218	     -0.90493429	      0.87851508	      0.20412719	    -32.23713924	      2.32952234	     -6.88034074	    -15.18983551	     21.52611022	     13.69594475	      0.00000000	     16.44931876	      5.95506062	      4.08728532	    -11.48880245	      3.69859145	    -13.45557968	      0.00000000	    -29.04152376	     -1.24432273	     -2.65714350
      5.09000000	      9.85728928	      1.32798489	     -0.60171910	     -0.88845428	      0.87745488	      0.20315610	    -31.29207077	      1.48292849	     -7.98002931	    -18.46389934	     19.38057597	     14.66898177	      0.00000000	     17.46023652	      6.56260215	      2.75893303	    -14.69080172	      3.85327909	    -12.16148849	      0.00000000	    -29.15049399	     -1.83533396	     -2.69637258
      5.10000000	      9.91567566	      1.77897418	     -0.44510129	     -0.87213336	      0.87670162	      0.20227275	    -30.17602953	      0.55502995	     -8.96031146	    -22.02052227	     16.64395734	     15.29588767	      0.00000000	     18.29455578	      7.12666618	      1.73854725	    -17.76227360	      4.25491842	    -11.16035743	      0.00000000	    -29.36065263	     -2.44283263	     -2.66199238
      5.11000000	     10.07900013	      2.25870312	     -0.33369073	     -0.85597014	      0.87629073	      0.20153237	    -28.94876010	     -0.44334680	     -9.69455295	    -25.77996193	     13.29750360	     15.52247557	      0.00000000	     18.89319098	      7.66600226	      0.84965812	    -20.69077502	      5.25711202	    -10.12719356	      0.00000000	    -29.67780889	     -3.09081128	     -2.69298485
      5.12000000	     10.24291998	      2.71531634	     -0.22420516	     -0.84002492	      0.87607334	      0.20080734	    -27.49166953	     -1.45480622	    -10.26257757	    -29.73325041	      9.59634685	     15.46920843	      0.00000000	     19.31971682	      8.18164434	      0.22493954	    -23.41193863	      6.69509913	     -9.19172423	      0.00000000	    -29.96708260	     -3.68057302	     -2.71341582
      5.13000000	     10.46617581	      3.15926761	     -0.15529590	     -0.82436986	      0.87617826	      0.20018534	    -25.90629065	     -2.46560193	    -10.55957994	    -33.77777381	      5.80399992	     15.13089258	      0.00000000	     19.45661701	      8.65051367	     -0.36238482	    -25.81847844	      8.50033619	     -8.16023992	      0.00000000	    -30.29806122	     -4.24196269	     -2.70555644
      5.14000000	     10.61890012	      3.60451846	     -0.13612081	     -0.80897160	      0.87649949	      0.19962519	    -24.07390815	     -3.48429630	    -10.59350389	    -37.87671771	      2.38852233	     14.73760746	      0.00000000	     19.37957600	      9.10651743	     -0.87757077	    -27.78551590	     10.46714477	     -7.18901021	      0.00000000	    -30.49177698	     -4.78484143	     -2.72271326
      5.15000000	     10.68940374	      4.05483750	     -0.19504242	     -0.79386121	      0.87710770	      0.19917917	    -22.01266999	     -4.49172454	    -10.33542721	    -41.95332571	     -0.25764163	     14.36338582	      0.00000000	     19.07474214	      9.53473240	     -1.41002812	    -29.23059731	     12.44034654	     -6.26225901	      0.00000000	    -30.53315894	     -5.32934451	     -2.74508605
      5.16000000	     10.68533389	      4.50414471	     -0.32955562	     -0.77904505	      0.87807597	      0.19884686	    -19.77091850	     -5.45838019	     -9.83299681	    -45.91701748	     -1.86880828	     14.04388466	      0.00000000	     18.55204813	      9.91944896	     -2.01617863	    -30.15594336	     14.27609284	     -5.37104463	      0.00000000	    -30.43503723	     -5.86637654	     -2.75005391
      5.17000000	     10.61628012	      4.92654063	     -0.55543501	     -0.76449342	      0.87948275	      0.19866371	    -17.38690632	     -6.33173527	     -9.08517411	    -49.68571965	     -2.34869006	     13.75614959	      0.00000000	     17.80596573	     10.24205591	     -2.66374947	    -30.54921917	     15.90385084	     -4.54390663	      0.00000000	    -30.20203495	     -6.38515128	     -2.74454650
      5.18000000	     10.52102652	      5.28804589	     -0.83819818	     -0.75018240	      0.88138176	      0.19858032	    -14.94037607	     -7.06197526	     -8.19452390	    -53.17253711	     -1.84866443	     13.42874495	      0.00000000	     16.85095647	     10.48179835	     -3.34236270	    -30.50310886	     17.29579313	     -3.78209917	      0.00000000	    -29.88828231	     -6.82893931	     -2.74010614
      5.19000000	     10.39113400	      5.53821273	     -1.12745575	     -0.73606986	      0.88375411	      0.19854562	    -12.45979648	     -7.56624401	     -7.22120421	    -56.30636398	     -0.54271602	     12.98684165	      0.00000000	     15.72457143	     10.62671640	     -3.91489076	    -30.07665293	     18.48187787	     -3.05856867	      0.00000000	    -29.49136667	     -7.13547642	     -2.72165417
      5.20000000	     10.27639986	      5.66706302	     -1.38983228	     -0.72214339	      0.88660079	      0.19847562	    -10.02731402	     -7.85459975	     -6.27442677	    -59.04616040	      1.25059110	     12.41633311	      0.00000000	     14.42567860	     10.69348969	     -4.33518198	    -29.36135597	     19.39242003	     -2.51776049	      0.00000000	    -29.08963501	     -7.26776822	     -2.73319888
      5.21000000	     10.10950693	      5.63199942	     -1.52458322	     -0.70839706	      0.88975395	      0.19826293	     -7.60639379	     -7.87692307	     -5.47398278	    -61.37218975	      3.27866036	     11.69029378	      0.00000000	     13.07532425	     10.65994264	     -4.48105200	    -28.46195321	     20.08661980	     -2.09367837	      0.00000000	    -28.63306534	     -7.15274507	     -2.78359804
      5.22000000	      9.92835477	      5.47219223	     -1.52547557	     -0.69482138	      0.89317624	      0.19788255	     -5.25330308	     -7.70177007	     -4.85631486	    -63.28335132	      5.28442889	     10.82752487	      0.00000000	     11.65298064	     10.57377844	     -4.32627866	    -27.40563097	     20.54644351	     -1.92405177	      0.00000000	    -28.18337983	     -6.83456209	     -2.91756625
      5.23000000	      9.70401201	      5.19703526	     -1.38096083	     -0.68143169	      0.89672651	      0.19732975	     -2.94112963	     -7.35774059	     -4.43632315	    -64.80234599	      7.14199202	      9.86685018	      0.00000000	     10.21980518	     10.42959931	     -3.86577738	    -26.24184144	     20.78635506	     -1.99349242	      0.00000000	    -27.72585683	     -6.32862723	     -3.12501821
